<?xml version="1.0" encoding="utf-8"?>
<!-- Generator: Adobe Illustrator 24.1.2, SVG Export Plug-In . SVG Version: 6.00 Build 0)  -->
<svg version="1.1" id="Filled" xmlns="http://www.w3.org/2000/svg" xmlns:xlink="http://www.w3.org/1999/xlink" x="0px" y="0px"
	 viewBox="0 0 512 512" style="enable-background:new 0 0 512 512;" xml:space="preserve">
<style type="text/css">
	.st0{fill:#D9D7CC;}
</style>
<path class="st0" d="M511,118.2L331.4,297.8c-41.7,41.6-109.2,41.6-150.9,0L1,118.2c-0.3,3.4-1,6.4-1,9.8v256
	c0.1,58.9,47.8,106.6,106.7,106.7h298.7c58.9-0.1,106.6-47.8,106.7-106.7V128C512,124.7,511.3,121.6,511,118.2z"/>
<path class="st0" d="M301.3,267.6L496.1,72.8c-19.2-31.8-53.6-51.3-90.8-51.4H106.7C69.5,21.5,35.1,41,15.9,72.8l194.9,194.9
	C235.8,292.6,276.2,292.6,301.3,267.6z"/>
</svg>
