<?xml version="1.0" encoding="utf-8"?>
<!-- Generator: Adobe Illustrator 24.1.2, SVG Export Plug-In . SVG Version: 6.00 Build 0)  -->
<svg version="1.1" id="Capa_1" xmlns="http://www.w3.org/2000/svg" xmlns:xlink="http://www.w3.org/1999/xlink" x="0px" y="0px"
	 viewBox="0 0 432.9 432.9" style="enable-background:new 0 0 432.9 432.9;" xml:space="preserve">
<style type="text/css">
	.st0{fill:#837E79;}
</style>
<g>
	<path id="Path_2520" class="st0" d="M368.9,368.9h-64.1V268.4c0-24-0.4-54.8-33.4-54.8c-33.4,0-38.5,26.1-38.5,53.1v102.2h-64.1
		V162.3h61.6v28.2h0.9c12.6-21.5,35.9-34.3,60.8-33.4c65,0,77,42.8,77,98.4L368.9,368.9z M96.3,134c-20.6,0-37.2-16.7-37.2-37.2
		s16.7-37.2,37.2-37.2s37.2,16.7,37.2,37.2C133.5,117.4,116.9,134,96.3,134L96.3,134 M128.4,368.9H64.2V162.3h64.2V368.9z M400.9,0
		H31.9C14.5-0.2,0.2,13.8,0,31.2v370.4c0.2,17.5,14.5,31.4,31.9,31.2h368.9c17.5,0.2,31.8-13.8,32.1-31.2V31.2
		C432.7,13.7,418.3-0.2,400.9,0"/>
</g>
</svg>
