<?xml version="1.0" encoding="utf-8"?>
<!-- Generator: Adobe Illustrator 24.1.2, SVG Export Plug-In . SVG Version: 6.00 Build 0)  -->
<svg version="1.1" id="Capa_1" xmlns="http://www.w3.org/2000/svg" xmlns:xlink="http://www.w3.org/1999/xlink" x="0px" y="0px"
	 viewBox="0 0 512 512" style="enable-background:new 0 0 512 512;" xml:space="preserve">
<style type="text/css">
	.st0{fill:#837E79;}
</style>
<path id="Logo_00000038394049246713568260000012923108920998390947_" class="st0" d="M459.6,151.6c0.3,4.5,0.3,9,0.3,13.6
	C459.9,303.9,354.2,464,161,464v-0.1C103.9,464,48,447.7,0,416.8c8.3,1,16.6,1.5,25,1.5c47.3,0,93.3-15.8,130.5-45.1
	c-44.9-0.9-84.4-30.2-98.1-73c15.7,3,32,2.4,47.4-1.8c-49-9.9-84.3-53-84.3-103c0-0.4,0-0.9,0-1.3c14.6,8.1,31,12.7,47.7,13.1
	C22,176.6,7.7,115.2,35.6,67.2c53.3,65.6,132,105.5,216.5,109.8c-8.5-36.5,3.1-74.7,30.4-100.4c42.3-39.8,108.8-37.7,148.6,4.6
	c23.5-4.6,46.1-13.3,66.7-25.5c-7.9,24.3-24.3,45-46.2,58.1c20.8-2.5,41.2-8.1,60.4-16.6C497.9,118.3,480.1,136.7,459.6,151.6z"/>
</svg>
